# AST/ASF file generated using VICON BodyLanguage
# -----------------------------------------------
:version 1.10
:name VICON
:units
  mass 1.0
  length 0.45
  angle deg
:documentation
   .ast/.asf automatically generated from VICON data using
   VICON BodyBuilder and BodyLanguage model FoxedUp or BRILLIANT.MOD
:root
   order TX TY TZ RX RY RZ
   axis XYZ
   position 0 0 0  
   orientation 0 0 0 
:bonedata
  begin
     id 1 
     name lhipjoint
     direction 0.635376 -0.686425 0.353719 
     length 2.47244 
     axis 0 0 0  XYZ
  end
  begin
     id 2 
     name lfemur
     direction 0.34202 -0.939693 0  
     length 7.25268  
     axis 0 0 20  XYZ
    dof rx ry rz
    limits (-160.0 20.0)
           (-70.0 70.0)
           (-60.0 70.0)
  end
  begin
     id 3 
     name ltibia
     direction 0.34202 -0.939693 0   
     length 7.6767   
     axis 0 0 20   XYZ
    dof rx
    limits (-10.0 170.0)
  end
  begin
     id 4 
     name lfoot
     direction 0.0803374 -0.220725 0.972022   
     length 2.22945   
     axis -90 7.62852e-016 20   XYZ
    dof rx rz
    limits (-45.0 90.0)
           (-70.0 20.0)
  end
  begin
     id 5 
     name ltoes
     direction 1.53579e-011 -4.21994e-011 1   
     length 1.11848   
     axis -90 7.62852e-016 20   XYZ
    dof rx
    limits (-90.0 20.0)
  end
  begin
     id 6 
     name rhipjoint
     direction -0.664428 -0.664335 0.342336   
     length 2.55466  
     axis 0 0 0  XYZ 
  end
  begin
     id 7 
     name rfemur
     direction -0.34202 -0.939693 0   
     length 6.83172   
     axis 0 0 -20   XYZ
    dof rx ry rz
    limits (-160.0 20.0)
           (-70.0 70.0)
           (-70.0 60.0)
  end
  begin
     id 8 
     name rtibia
     direction -0.34202 -0.939693 0   
     length 7.62692   
     axis 0 0 -20   XYZ
    dof rx
    limits (-10.0 170.0)
 end
 begin
     id 9 
     name rfoot
     direction -0.0949276 -0.260811 0.960711   
     length 2.19684  
     axis -90 -7.62852e-016 -20   XYZ
    dof rx rz
    limits (-45.0 90.0)
           (-20.0 70.0)
  end
  begin
     id 10 
     name rtoes
     direction -1.53543e-011 -4.2183e-011 1   
     length 1.09848   
     axis -90 -7.62852e-016 -20   XYZ
    dof rx
    limits (-90.0 20.0)
  end
  begin
     id 11 
     name lowerback
     direction 0.0118782 0.999815 -0.0151555   
     length 2.15772   
     axis 0 0 0   XYZ
    dof rx ry rz
    limits (-20.0 45.0)
           (-30.0 30.0)
           (-30.0 30.0)
  end
  begin
     id 12 
     name upperback
     direction 0.00130825 0.999065 0.0432113   
     length 2.14863   
     axis 0 0 0   XYZ
    dof rx ry rz
    limits (-20.0 45.0)
           (-30.0 30.0)
           (-30.0 30.0)
  end
  begin
     id 13 
     name thorax
     direction -0.00347005 0.998773 0.0494011   
     length 2.14936   
     axis 0 0 0   XYZ
    dof rx ry rz
    limits (-20.0 45.0)
           (-30.0 30.0)
           (-30.0 30.0)
  end
  begin
     id 14 
     name lowerneck
     direction -0.0262159 0.99424 0.103921   
     length 1.69373   
     axis 0 0 0   XYZ
    dof rx ry rz
    limits (-20.0 45.0)
           (-30.0 30.0)
           (-30.0 30.0)
  end
  begin
     id 15 
     name upperneck
     direction 0.0353511 0.977394 -0.20845   
     length 1.70857   
     axis 0 0 0   XYZ
    dof rx ry rz
    limits (-20.0 45.0)
           (-30.0 30.0)
           (-30.0 30.0)
  end
  begin
     id 16
     name head
     direction 0.0139214 0.996594 -0.0812836  
     length 1.72777  
     axis 0 0 0   XYZ
    dof rx ry rz
    limits (-20.0 45.0)
           (-30.0 30.0)
           (-30.0 30.0)
  end
  begin
     id 17 
     name lclavicle
     direction 0.841247 0.537205 -0.0609508  
     length 3.55371  
     axis 0 0 0   XYZ
    dof ry rz
    limits (-20.0 10.0)
           (0.0 20.0)
  end
  begin
     id 18 
     name lhumerus
     direction 1 -4.48964e-011 1.60116e-018   
     length 4.91377   
     axis -180 -30 -90   XYZ
    dof rx ry rz
    limits (-60.0 90.0)
           (-90.0 90.0)
           (-90.0 90.0)
  end
  begin
     id 19
     name lradius
     direction 1 -4.48989e-011 -8.93847e-027   
     length 3.00291   
     axis -180 -30 -90   XYZ
    dof rx
    limits (-10.0 170.0)
  end
  begin
     id 20
     name lwrist
     direction 1 -4.48932e-011 -7.31504e-027   
     length 1.50145   
     axis 5.74121e-015 90 90   XYZ
    dof ry
    limits (-180.0 0.0)
 end
  begin
     id 21 
     name lhand
     direction 1 -4.48971e-011 -1.46301e-026   
     length 0.450922   
     axis 9.33524e-015 90 90   XYZ
    dof rx rz
    limits (-90.0 90.0)
           (-45.0 45.0)
  end
  begin
     id 22 
     name lfingers
     direction 1 -4.49039e-011 -2.92602e-026   
     length 0.363545   
     axis 1.86705e-014 90 90   XYZ
    dof rx
    limits (0.0 90.0)
  end
  begin
     id 23
     name lthumb
     direction 0.707107 -6.34941e-011 0.707107   
     length 0.52198   
     axis -90 45 2.85299e-015   XYZ
    dof rx rz
    limits (-45.0 45.0)
           (-45.0 45.0)
  end
  begin
     id 24 
     name rclavicle
     direction -0.825079 0.56158 -0.0622297   
     length 3.39909  
     axis 0 0 0   XYZ 
    dof ry rz
    limits (-10.0 20.0)
           (-20.0 0.0)
  end
  begin
     id 25 
     name rhumerus
     direction -1 -4.48965e-011 1.61691e-027  
     length 4.86725   
     axis -180 30 90   XYZ
    dof rx ry rz
    limits (-90.0 60.0)
           (-90.0 90.0)
           (-90.0 90.0)
  end
  begin
     id 26 
     name rradius
     direction -1 -4.48964e-011 -2.25776e-027   
     length 3.17144   
     axis -180 30 90   XYZ
    dof rx
    limits (-10.0 170.0)
  end
  begin
     id 27 
     name rwrist
     direction -1 -4.48961e-011 -7.31504e-027   
     length 1.58572   
     axis 5.74121e-015 -90 -90   XYZ
    dof ry
    limits (-180.0 0.0)
  end
  begin
     id 28
     name rhand
     direction -1 -4.49013e-011 -1.46301e-026   
     length 0.419368   
     axis 9.33524e-015 -90 -90   XYZ
    dof rx rz
    limits (-90.0 90.0)
           (-45.0 45.0)
  end
  begin
     id 29
     name rfingers
     direction -1 -4.489e-011 -2.92602e-026   
     length 0.338105   
     axis 1.86705e-014 -90 -90   XYZ
    dof rx
    limits (0.0 90.0)
  end
  begin
     id 30
     name rthumb
     direction -0.707107 -6.35022e-011 0.707107   
     length 0.485453   
     axis -90 -45 -2.85299e-015   XYZ
    dof rx rz
    limits (-45.0 45.0)
           (-45.0 45.0)
  end
:hierarchy
  begin
    root lhipjoint rhipjoint lowerback
    lhipjoint lfemur
    lfemur ltibia
    ltibia lfoot
    lfoot ltoes
    rhipjoint rfemur
    rfemur rtibia
    rtibia rfoot
    rfoot rtoes
    lowerback upperback
    upperback thorax
    thorax lowerneck lclavicle rclavicle
    lowerneck upperneck
    upperneck head
    lclavicle lhumerus
    lhumerus lradius
    lradius lwrist
    lwrist lhand lthumb
    lhand lfingers
    rclavicle rhumerus
    rhumerus rradius
    rradius rwrist
    rwrist rhand rthumb
    rhand rfingers
  end

#!OML:ASF H:\Swim 2\Project 1\Capture day 1\Session 1\male.ASF
:FULLY-SPECIFIED
:DEGREES
76
root 1.148 14.5268 8.41984 106.086 3.85624 -2.45683
lowerback -17.8141 3.75551 4.44522
upperback -5.17279 3.99959 5.43354
thorax 4.28878 2.04006 4.12841
lowerneck -12.6498 -0.618122 6.94528
upperneck 15.9424 0.415483 -15.0704
head 6.9747 -0.667056 -6.0956
rclavicle -2.78299e-014 -4.35835e-014
rhumerus 75.9951 -29.1498 -39.1713
rradius 18.7296
rwrist 35.0478
rhand -39.5559 11.9641
rfingers 7.12502
rthumb -12.5396 -17.6396
lclavicle -2.78299e-014 -4.35835e-014
lhumerus -19.7561 26.727 -21.962
lradius 19.3402
lwrist 5.14952
lhand -30.1475 12.9584
lfingers 7.12502
lthumb -3.45991 42.9101
rfemur -45.4281 -3.0753 22.8245
rtibia 34.3733
rfoot 15.3657 -5.04835
rtoes 15.3678
lfemur -42.2161 0.129851 -25.6389
ltibia 38.7749
lfoot 1.3567 5.56272
ltoes -16.7071
77
root 1.12999 14.5268 8.42941 106.117 3.79339 -2.52615
lowerback -17.7643 3.81242 4.26543
upperback -5.15744 4.11327 5.46406
thorax 4.26035 2.09836 4.28317
lowerneck -13.1481 -0.708072 7.06386
upperneck 15.9995 0.334625 -15.538
head 7.07382 -0.755714 -6.298
rclavicle -2.8625e-014 -1.6847e-014
rhumerus 76.2438 -29.6778 -40.9727
rradius 18.2189
rwrist 38.3363
rhand -40.2884 13.0427
rfingers 7.12502
rthumb -13.2457 -16.5164
lclavicle -2.8625e-014 -1.6847e-014
lhumerus -17.7867 27.5908 -21.2326
lradius 20.2954
lwrist 10.1873
lhand -31.1928 13.0968
lfingers 7.12502
lthumb -4.46934 43.0297
rfemur -45.7532 -2.65516 22.4699
rtibia 33.1854
rfoot 14.2861 -6.2038
rtoes 15.6011
lfemur -41.6012 0.467854 -25.9306
ltibia 39.0918
lfoot 1.42704 5.0463
ltoes -17.2246
78
root 1.11189 14.5279 8.44119 106.16 3.7254 -2.60634
lowerback -17.7286 3.89738 4.02317
upperback -5.15527 4.27794 5.47864
thorax 4.21897 2.18301 4.46683
lowerneck -13.6916 -0.824766 7.27664
upperneck 16.2018 0.215051 -16.0289
head 7.2216 -0.86419 -6.53824
rclavicle -3.26007e-014 2.00773e-014
rhumerus 76.4866 -30.3664 -42.9028
rradius 17.6737
rwrist 41.8812
rhand -41.0244 13.9732
rfingers 7.12502
rthumb -13.9552 -15.5384
lclavicle -3.26007e-014 2.00773e-014
lhumerus -15.6371 28.3955 -20.3398
lradius 21.2916
lwrist 15.3373
lhand -32.2003 13.1267
lfingers 7.12502
lthumb -5.44213 43.0368
rfemur -46.0633 -2.17625 22.0515
rtibia 31.9266
rfoot 13.1256 -7.49588
rtoes 15.8828
lfemur -40.9701 0.81166 -26.2093
ltibia 39.3606
lfoot 1.44474 4.60443
ltoes -17.9868
79
root 1.09348 14.53 8.45462 106.215 3.65737 -2.70286
lowerback -17.7045 4.00064 3.73245
upperback -5.16565 4.47764 5.4807
thorax 4.16438 2.28603 4.67151
lowerneck -14.2416 -0.961648 7.55958
upperneck 16.4868 0.0606825 -16.5223
head 7.39136 -0.987552 -6.80247
rclavicle 2.38542e-014 4.83544e-014
rhumerus 76.78 -31.1952 -45.0441
rradius 17.1245
rwrist 45.6964
rhand -41.7463 14.6902
rfingers 7.12502
rthumb -14.6508 -14.7723
lclavicle 2.38542e-014 4.83544e-014
lhumerus -13.3563 29.2548 -19.3606
lradius 22.3046
lwrist 20.3785
lhand -33.0781 13.024
lfingers 7.12502
lthumb -6.28959 42.9106
rfemur -46.3541 -1.62449 21.5637
rtibia 30.6131
rfoot 11.888 -8.87202
rtoes 16.196
lfemur -40.3383 1.17035 -26.4712
ltibia 39.5976
lfoot 1.4405 4.23167
ltoes -18.8013
80
root 1.07458 14.533 8.46924 106.277 3.59256 -2.82095
lowerback -17.6895 4.11296 3.40572
upperback -5.18648 4.69721 5.47424
thorax 4.09807 2.39981 4.89111
lowerneck -14.7665 -1.1144 7.88342
upperneck 16.8004 -0.126213 -16.9955
head 7.55993 -1.12198 -7.07477
rclavicle 2.06736e-014 -3.76697e-014
rhumerus 77.1781 -32.1366 -47.446
rradius 16.5993
rwrist 49.7523
rhand -42.4156 15.1586
rfingers 7.12502
rthumb -15.2956 -14.2558
lclavicle 2.06736e-014 -3.76697e-014
lhumerus -10.9767 30.2993 -18.3372
lradius 23.3005
lwrist 25.0578
lhand -33.7349 12.7979
lfingers 7.12502
lthumb -6.92365 42.6647
rfemur -46.6183 -0.985691 20.9982
rtibia 29.2607
rfoot 10.5795 -10.2717
rtoes 16.5186
lfemur -39.7178 1.55102 -26.7143
ltibia 39.8189
lfoot 1.44486 3.91967
ltoes -19.4922
81
root 1.0551 14.5366 8.48457 106.343 3.53332 -2.96309
lowerback -17.6815 4.22713 3.05382
upperback -5.21506 4.92447 5.46354
thorax 4.02239 2.51826 5.12153
lowerneck -15.2463 -1.28165 8.21932
upperneck 17.1077 -0.344373 -17.4307
head 7.71231 -1.26534 -7.34109
rclavicle -3.33958e-014 -4.34841e-014
rhumerus 77.7002 -33.1562 -50.0733
rradius 16.1215
rwrist 53.9271
rhand -42.9793 15.3712
rfingers 7.12502
rthumb -15.8385 -14.001
lclavicle -3.33958e-014 -4.34841e-014
lhumerus -8.50426 31.6215 -17.262
lradius 24.2432
lwrist 29.1509
lhand -34.1106 12.5014
lfingers 7.12502
lthumb -7.28631 42.356
rfemur -46.8459 -0.251735 20.3487
rtibia 27.8856
rfoot 9.21076 -11.6363
rtoes 16.8086
lfemur -39.1177 1.95549 -26.9364
ltibia 40.0402
lfoot 1.48216 3.65925
ltoes -19.9198
82
root 1.03504 14.5406 8.50021 106.409 3.48125 -3.12845
lowerback -17.6787 4.33802 2.68665
upperback -5.24851 5.15023 5.45284
thorax 3.94022 2.63672 5.35988
lowerneck -15.6741 -1.46157 8.54266
upperneck 17.3922 -0.589018 -17.8189
head 7.84234 -1.41532 -7.59141
rclavicle -9.06458e-014 -1.12214e-013
rhumerus 78.3088 -34.2113 -52.7978
rradius 15.7118
rwrist 58.007
rhand -43.3891 15.3435
rfingers 7.12502
rthumb -16.233 -13.9969
lclavicle -9.06458e-014 -1.12214e-013
lhumerus -5.8697 33.4519 -16.0578
lradius 25.0342
lwrist 32.2922
lhand -34.1637 12.1715
lfingers 7.12502
lthumb -7.3376 42.0243
rfemur -47.027 0.570713 19.6183
rtibia 26.5064
rfoot 7.80453 -12.9138
rtoes 17.0194
lfemur -38.5449 2.37991 -27.1345
ltibia 40.276
lfoot 1.55549 3.4472
ltoes -20.0664
83
root 1.01453 14.5448 8.51575 106.47 3.43794 -3.31159
lowerback -17.6797 4.44187 2.31481
upperback -5.28465 5.36709 5.44609
thorax 3.854 2.75139 5.60292
lowerneck -16.0536 -1.64957 8.83564
upperneck 17.6521 -0.849321 -18.1608
head 7.9517 -1.56802 -7.82083
rclavicle 1.20861e-013 8.7664e-014
rhumerus 78.8961 -35.2537 -55.3949
rradius 15.3862
rwrist 61.6878
rhand -43.6111 15.0997
rfingers 7.12502
rthumb -16.4467 -14.2231
lclavicle 1.20861e-013 8.7664e-014
lhumerus -3.16747 35.1963 -14.7327
lradius 25.8126
lwrist 34.972
lhand -34.0276 11.9239
lfingers 7.12502
lthumb -7.20625 41.7813
rfemur -47.154 1.45413 18.8263
rtibia 25.1457
rfoot 6.39868 -14.0615
rtoes 17.1045
lfemur -38.0051 2.81346 -27.3042
ltibia 40.5392
lfoot 1.65599 3.2831
ltoes -19.9899
84
root 0.993741 14.549 8.53088 106.523 3.40367 -3.50409
lowerback -17.6827 4.5361 1.94721
upperback -5.32266 5.56974 5.44619
thorax 3.76474 2.85953 5.8477
lowerneck -16.3952 -1.83801 9.08727
upperneck 17.8958 -1.10958 -18.4627
head 8.04784 -1.71784 -8.02817
rclavicle 8.74653e-014 6.35614e-014
rhumerus 79.2991 -36.2392 -57.5915
rradius 15.1502
rwrist 64.6494
rhand -43.6596 14.6406
rfingers 7.12502
rthumb -16.4935 -14.6783
lclavicle 8.74653e-014 6.35614e-014
lhumerus -0.40627 36.7737 -13.2934
lradius 26.5591
lwrist 37.1761
lhand -33.7846 11.7438
lfingers 7.12502
lthumb -6.97164 41.609
rfemur -47.2218 2.34877 18.01
rtibia 23.8326
rfoot 5.05177 -15.0456
rtoes 17.0497
lfemur -37.5027 3.24035 -27.4416
ltibia 40.8404
lfoot 1.77145 3.165
ltoes -19.7796
85
root 0.972945 14.553 8.54544 106.565 3.378 -3.69507
lowerback -17.6863 4.61915 1.59195
upperback -5.36247 5.75458 5.45407
thorax 3.67303 2.95923 6.08989
lowerneck -16.7165 -2.01698 9.29307
upperneck 18.1414 -1.35153 -18.7306
head 8.14332 -1.85798 -8.21437
rclavicle -5.24792e-014 -4.65653e-014
rhumerus 79.3183 -37.1309 -59.0997
rradius 15.0045
rwrist 66.5763
rhand -43.589 13.941
rfingers 7.12502
rthumb -16.4255 -15.3836
lclavicle -5.24792e-014 -4.65653e-014
lhumerus 2.49361 38.3191 -11.6855
lradius 27.1685
lwrist 38.6867
lhand -33.4742 11.5483
lfingers 7.12502
lthumb -6.67197 41.4232
rfemur -47.228 3.18738 17.2236
rtibia 22.6025
rfoot 3.83479 -15.8357
rtoes 16.8633
lfemur -37.041 3.64077 -27.5428
ltibia 41.1869
lfoot 1.89183 3.08774
ltoes -19.5233
86
root 0.952375 14.5568 8.55933 106.592 3.35835 -3.87321
lowerback -17.6887 4.68958 1.25383
upperback -5.40511 5.91888 5.46869
thorax 3.57803 3.04907 6.32499
lowerneck -17.0317 -2.17783 9.4499
upperneck 18.4077 -1.56029 -18.9623
head 8.25008 -1.98224 -8.37823
rclavicle -4.29375e-014 -3.69739e-014
rhumerus 78.7356 -37.8872 -59.6396
rradius 14.9539
rwrist 67.158
rhand -43.4614 12.9615
rfingers 7.12502
rthumb -16.3027 -16.3732
lclavicle -4.29375e-014 -3.69739e-014
lhumerus 5.4241 39.5151 -10.0165
lradius 27.7119
lwrist 39.7858
lhand -33.2075 11.3039
lfingers 7.12502
lthumb -6.41452 41.1868
rfemur -47.1722 3.89957 16.5258
rtibia 21.4978
rfoot 2.82376 -16.4072
rtoes 16.591
lfemur -36.6211 3.99313 -27.6058
ltibia 41.5825
lfoot 2.01296 3.04233
ltoes -19.2816
87
root 0.932216 14.5602 8.57252 106.604 3.34142 -4.02685
lowerback -17.6885 4.74556 0.935398
upperback -5.45196 6.05986 5.48794
thorax 3.47889 3.1276 6.5486
lowerneck -17.3545 -2.31001 9.56786
upperneck 18.7103 -1.7197 -19.1685
head 8.37902 -2.08403 -8.52579
rclavicle 5.40694e-014 3.39922e-014
rhumerus 77.3391 -38.4427 -58.9628
rradius 15.0184
rwrist 66.0961
rhand -43.3277 11.6714
rfingers 7.12502
rthumb -16.174 -17.6738
lclavicle 5.40694e-014 3.39922e-014
lhumerus 8.3399 40.3312 -8.35402
lradius 28.186
lwrist 40.4859
lhand -33.0288 10.9541
lfingers 7.12502
lthumb -6.24197 40.8421
rfemur -47.0573 4.42846 15.9668
rtibia 20.564
rfoot 2.08215 -16.7507
rtoes 16.3078
lfemur -36.2433 4.27558 -27.6298
ltibia 42.0282
lfoot 2.13698 3.01571
ltoes -19.0801
88
root 0.912547 14.5632 8.58497 106.598 3.32264 -4.14568
lowerback -17.6859 4.78513 0.635968
upperback -5.50407 6.17505 5.50865
thorax 3.37568 3.19352 6.75727
lowerneck -17.6945 -2.40524 9.66466
upperneck 19.0589 -1.81813 -19.3671
head 8.53751 -2.15883 -8.66724
rclavicle -1.27222e-014 -4.59193e-014
rhumerus 74.9666 -38.6866 -56.8963
rradius 15.2374
rwrist 63.1108
rhand -43.2077 10.1067
rfingers 7.12502
rthumb -16.0584 -19.2478
lclavicle -1.27222e-014 -4.59193e-014
lhumerus 11.2185 40.8088 -6.74123
lradius 28.581
lwrist 40.7511
lhand -32.9607 10.4648
lfingers 7.12502
lthumb -6.17623 40.3548
rfemur -46.8897 4.74525 15.5732
rtibia 19.8449
rfoot 1.64614 -16.8782
rtoes 16.1029
lfemur -35.9086 4.46944 -27.6163
ltibia 42.5231
lfoot 2.27276 2.98892
ltoes -18.9074
